<svg id="visual" viewBox="0 0 900 600" width="900" height="600" xmlns="http://www.w3.org/2000/svg" xmlns:xlink="http://www.w3.org/1999/xlink" version="1.1"><rect x="0" y="0" width="900" height="600" fill="#001220"></rect><defs><linearGradient id="grad1_0" x1="33.3%" y1="0%" x2="100%" y2="100%"><stop offset="20%" stop-color="#00957a" stop-opacity="1"></stop><stop offset="80%" stop-color="#00957a" stop-opacity="1"></stop></linearGradient></defs><defs><linearGradient id="grad1_1" x1="33.3%" y1="0%" x2="100%" y2="100%"><stop offset="20%" stop-color="#00957a" stop-opacity="1"></stop><stop offset="80%" stop-color="#00505f" stop-opacity="1"></stop></linearGradient></defs><defs><linearGradient id="grad1_2" x1="33.3%" y1="0%" x2="100%" y2="100%"><stop offset="20%" stop-color="#001220" stop-opacity="1"></stop><stop offset="80%" stop-color="#00505f" stop-opacity="1"></stop></linearGradient></defs><defs><linearGradient id="grad2_0" x1="0%" y1="0%" x2="66.7%" y2="100%"><stop offset="20%" stop-color="#00957a" stop-opacity="1"></stop><stop offset="80%" stop-color="#00957a" stop-opacity="1"></stop></linearGradient></defs><defs><linearGradient id="grad2_1" x1="0%" y1="0%" x2="66.7%" y2="100%"><stop offset="20%" stop-color="#00505f" stop-opacity="1"></stop><stop offset="80%" stop-color="#00957a" stop-opacity="1"></stop></linearGradient></defs><defs><linearGradient id="grad2_2" x1="0%" y1="0%" x2="66.7%" y2="100%"><stop offset="20%" stop-color="#00505f" stop-opacity="1"></stop><stop offset="80%" stop-color="#001220" stop-opacity="1"></stop></linearGradient></defs><g transform="translate(900, 0)"><path d="M0 432.7C-53.4 413.1 -106.8 393.5 -152.7 368.6C-198.6 343.7 -237 313.5 -280.7 280.7C-324.5 248 -373.5 212.8 -399.7 165.6C-425.9 118.4 -429.3 59.2 -432.7 0L0 0Z" fill="#002f42"></path><path d="M0 288.4C-35.6 275.4 -71.2 262.4 -101.8 245.8C-132.4 229.1 -158 209 -187.1 187.1C-216.3 165.3 -249 141.8 -266.5 110.4C-284 78.9 -286.2 39.5 -288.4 0L0 0Z" fill="#007272"></path><path d="M0 144.2C-17.8 137.7 -35.6 131.2 -50.9 122.9C-66.2 114.6 -79 104.5 -93.6 93.6C-108.2 82.7 -124.5 70.9 -133.2 55.2C-142 39.5 -143.1 19.7 -144.2 0L0 0Z" fill="#00957a"></path></g><g transform="translate(0, 600)"><path d="M0 -432.7C48.1 -405.2 96.2 -377.8 149.2 -360.3C202.3 -342.9 260.2 -335.4 304.8 -304.8C349.4 -274.1 380.6 -220.2 399.7 -165.6C418.8 -110.9 425.7 -55.5 432.7 0L0 0Z" fill="#002f42"></path><path d="M0 -288.4C32.1 -270.1 64.2 -251.8 99.5 -240.2C134.8 -228.6 173.4 -223.6 203.2 -203.2C232.9 -182.7 253.8 -146.8 266.5 -110.4C279.2 -73.9 283.8 -37 288.4 0L0 0Z" fill="#007272"></path><path d="M0 -144.2C16 -135.1 32.1 -125.9 49.7 -120.1C67.4 -114.3 86.7 -111.8 101.6 -101.6C116.5 -91.4 126.9 -73.4 133.2 -55.2C139.6 -37 141.9 -18.5 144.2 0L0 0Z" fill="#00957a"></path></g></svg>