<svg width="765" height="765" viewBox="0 0 765 765" fill="none" xmlns="http://www.w3.org/2000/svg">
<g clip-path="url(#clip0_10_4)">
<path d="M765 0H0V765H765V0Z" fill="url(#paint0_linear_10_4)"/>
<path d="M210.077 141.139C207.372 136.44 207.733 124.764 216.2 120.245C224.668 115.725 233.542 121.416 236.248 126.115L291.431 216.12C294.136 220.819 289.464 228.292 280.997 232.812C272.529 237.332 263.472 237.187 260.768 232.488L210.077 141.139Z" fill="#007118"/>
<path d="M552.236 137.262C554.981 132.493 554.544 124.764 546.077 120.245C537.61 115.725 528.326 119.892 525.58 124.661L469.952 217.673C467.207 222.442 471.846 229.972 480.313 234.492C488.781 239.012 497.871 238.81 500.616 234.041L552.236 137.262Z" fill="#007118"/>
<path fill-rule="evenodd" clip-rule="evenodd" d="M382.377 375.955H536.772C566.89 375.955 592.145 350.905 582.491 322.375C556.62 245.922 476.815 190.229 382.377 190.229C287.938 190.229 208.134 245.922 182.263 322.375C172.608 350.905 198.032 375.955 228.152 375.955H382.377ZM304.289 313.41C320.684 313.41 333.976 300.119 333.976 283.724C333.976 267.329 320.684 254.038 304.289 254.038C287.894 254.038 274.603 267.329 274.603 283.724C274.603 300.119 287.894 313.41 304.289 313.41ZM490.151 283.724C490.151 300.119 476.859 313.41 460.464 313.41C444.069 313.41 430.778 300.119 430.778 283.724C430.778 267.329 444.069 254.038 460.464 254.038C476.859 254.038 490.151 267.329 490.151 283.724Z" fill="#007118"/>
<path d="M410.206 625.958C394.559 641.125 369.694 641.125 354.047 625.958L193.211 470.043C167.188 444.816 185.047 400.735 221.29 400.735H542.962C579.206 400.735 597.065 444.816 571.042 470.043L410.206 625.958Z" fill="#007118"/>
</g>
<defs>
<linearGradient id="paint0_linear_10_4" x1="40.8495" y1="713.474" x2="739.005" y2="22.7457" gradientUnits="userSpaceOnUse">
<stop stop-color="#C0C9FF"/>
<stop offset="1" stop-color="#EBFFBC"/>
</linearGradient>
<clipPath id="clip0_10_4">
<rect width="765" height="765" rx="278" fill="white"/>
</clipPath>
</defs>
</svg>
