<svg width="731" height="731" viewBox="0 0 731 731" fill="none" xmlns="http://www.w3.org/2000/svg">
<g clip-path="url(#clip0_13_2)">
<path d="M731 0H0V731H731V0Z" fill="url(#paint0_linear_13_2)"/>
<path d="M200.74 134.867C198.155 130.376 198.5 119.219 206.591 114.901C214.683 110.582 223.163 116.02 225.748 120.51L278.479 206.515C281.063 211.005 276.599 218.146 268.508 222.465C260.417 226.783 251.762 226.645 249.178 222.155L200.74 134.867Z" fill="#048142"/>
<path d="M527.692 131.162C530.315 126.604 529.898 119.219 521.807 114.9C513.716 110.582 504.845 114.563 502.221 119.121L449.065 207.999C446.442 212.556 450.875 219.751 458.966 224.07C467.058 228.389 475.743 228.196 478.366 223.639L527.692 131.162Z" fill="#048142"/>
<path fill-rule="evenodd" clip-rule="evenodd" d="M365.382 359.246H512.915C541.695 359.246 565.828 335.309 556.602 308.047C531.881 234.992 455.623 181.774 365.382 181.774C275.141 181.774 198.883 234.992 174.162 308.047C164.937 335.309 189.231 359.246 218.011 359.246H365.382ZM290.765 299.481C306.432 299.481 319.132 286.78 319.132 271.114C319.132 255.447 306.432 242.747 290.765 242.747C275.099 242.747 262.398 255.447 262.398 271.114C262.398 286.78 275.099 299.481 290.765 299.481ZM468.366 271.114C468.366 286.78 455.666 299.481 439.999 299.481C424.333 299.481 411.632 286.78 411.632 271.114C411.632 255.447 424.333 242.747 439.999 242.747C455.666 242.747 468.366 255.447 468.366 271.114Z" fill="#048142"/>
<path d="M391.974 598.137C377.023 612.631 353.263 612.631 338.312 598.137L184.624 449.152C159.758 425.046 176.823 382.925 211.455 382.925H518.831C553.463 382.925 570.528 425.046 545.662 449.152L391.974 598.137Z" fill="#048142"/>
</g>
<defs>
<linearGradient id="paint0_linear_13_2" x1="39.034" y1="681.764" x2="706.16" y2="21.7348" gradientUnits="userSpaceOnUse">
<stop stop-color="#C0C9FF"/>
<stop offset="1" stop-color="#EBFFBC"/>
</linearGradient>
<clipPath id="clip0_13_2">
<rect width="731" height="731" rx="240" fill="white"/>
</clipPath>
</defs>
</svg>
