<svg width="3155" height="600" viewBox="0 0 3155 600" fill="none" xmlns="http://www.w3.org/2000/svg">
<path d="M940.784 449.871C918.363 449.871 899.465 447.361 883.594 442.09C867.722 436.819 854.87 430.542 844.792 422.761C834.714 414.981 827.41 407.2 822.371 399.413C817.584 391.632 814.809 385.103 814.558 380.084C814.306 376.064 815.313 372.806 818.087 370.297C820.855 367.781 823.881 366.781 827.41 366.781H871.748C873.264 366.781 874.522 367.032 875.529 367.284C876.535 367.529 878.051 368.787 880.064 370.542C884.852 374.561 889.891 378.832 895.433 383.348C900.723 387.864 907.279 391.632 914.582 394.639C922.137 397.91 931.209 399.413 942.551 399.413C957.159 399.413 969.256 396.652 979.082 390.877C988.909 385.103 993.948 376.819 993.948 366.277C993.948 358.497 991.928 352.213 987.651 347.445C983.366 342.677 975.553 338.155 963.965 334.394C952.371 330.626 935.996 326.361 914.834 321.839C893.923 317.071 876.787 310.794 862.934 303.516C849.076 295.981 838.998 286.948 832.197 275.645C825.391 264.6 822.119 251.548 822.119 236.742C822.119 222.174 826.397 208.619 835.217 195.316C844.037 182.258 856.883 171.213 874.271 162.929C891.652 154.394 913.072 150.123 938.771 150.123C958.926 150.123 976.308 152.639 991.173 157.658C1006.04 162.677 1018.39 168.948 1028.21 176.239C1038.04 183.768 1045.6 191.045 1050.89 198.832C1056.18 206.361 1058.95 212.89 1059.2 218.658C1059.45 222.677 1058.45 225.942 1055.92 228.452C1053.41 230.968 1050.38 231.968 1047.11 231.968H1005.79C1004.03 231.968 1002.26 231.716 1000.75 230.961C999.238 230.206 997.728 229.206 996.212 228.2C992.18 224.432 987.65 220.671 982.863 216.652C977.549 212.202 971.604 208.565 965.224 205.858C958.423 202.594 949.352 201.084 938.267 201.084C924.157 201.084 913.324 204.103 906.014 210.374C898.459 216.4 894.93 224.181 894.93 233.471C894.93 239.748 896.691 245.277 900.22 249.794C903.749 254.31 910.801 258.826 921.634 262.845C932.473 266.864 948.848 271.129 970.766 275.652C995.709 280.168 1015.36 286.697 1030.23 295.484C1044.84 304.271 1055.42 314.31 1061.47 325.355C1067.51 336.652 1070.54 349.206 1070.54 362.761C1070.54 379.329 1065.5 394.394 1055.67 407.697C1045.85 421.006 1031.23 431.548 1012.08 439.077C992.689 446.11 969.004 449.871 940.784 449.871Z" fill="#93E3CC"/>
<path d="M1256.73 394.897C1276.38 394.897 1291.75 388.619 1302.34 376.316C1313.17 364.019 1318.96 345.69 1320.22 321.587C1320.89 307.203 1320.89 292.797 1320.22 278.413C1319.22 254.813 1313.17 236.484 1302.34 223.935C1291.5 211.381 1276.38 205.103 1256.73 205.103C1237.08 205.103 1221.71 211.381 1211.13 223.935C1200.29 236.484 1194.5 254.561 1193.24 278.413C1192.58 292.797 1192.58 307.203 1193.24 321.587C1194.25 345.69 1200.29 364.019 1211.13 376.316C1221.71 388.871 1237.08 394.897 1256.73 394.897ZM1256.73 449.877C1227 449.877 1202.06 444.606 1181.65 434.31C1161.49 424.019 1145.87 409.206 1135.29 390.374C1124.71 371.548 1118.66 349.458 1117.15 324.355C1116.83 316.241 1116.66 308.121 1116.65 300C1116.65 290.458 1116.9 282.174 1117.15 275.652C1118.66 250.039 1124.96 227.948 1135.79 209.374C1146.88 190.794 1162.25 176.232 1182.66 165.697C1202.82 155.4 1227.51 150.129 1256.48 150.129C1285.45 150.129 1310.14 155.4 1330.3 165.69C1350.46 175.987 1366.08 190.542 1377.16 209.368C1388 228.206 1394.3 250.29 1395.81 275.652C1396.13 283.764 1396.3 291.881 1396.31 300C1396.31 309.542 1396.06 317.826 1395.81 324.355C1394.3 349.452 1388.25 371.548 1377.66 390.374C1367.08 409.206 1351.71 424.019 1331.31 434.31C1311.4 444.852 1286.46 449.877 1256.73 449.877Z" fill="#93E3CC"/>
<path d="M1723.09 394.897C1742.74 394.897 1758.11 388.619 1768.69 376.316C1779.53 364.019 1785.32 345.69 1786.58 321.587C1787.24 307.203 1787.24 292.797 1786.58 278.413C1785.57 254.813 1779.53 236.484 1768.69 223.935C1757.86 211.381 1742.74 205.103 1723.09 205.103C1703.44 205.103 1688.07 211.381 1677.49 223.935C1666.65 236.484 1660.86 254.561 1659.6 278.413C1658.94 292.797 1658.94 307.203 1659.6 321.587C1660.61 345.69 1666.65 364.019 1677.49 376.316C1688.07 388.871 1703.18 394.897 1723.09 394.897ZM1723.09 449.877C1693.36 449.877 1668.42 444.606 1648.01 434.31C1627.85 424.019 1612.23 409.206 1601.65 390.374C1591.07 371.548 1585.02 349.458 1583.51 324.355C1583.19 316.241 1583.02 308.121 1583.01 300C1583.01 290.458 1583.26 282.174 1583.51 275.652C1585.02 250.039 1591.32 227.948 1602.15 209.374C1613.24 190.794 1628.61 176.232 1649.02 165.697C1669.18 155.4 1693.87 150.129 1722.84 150.129C1751.81 150.129 1776.5 155.4 1796.66 165.69C1816.82 175.987 1832.44 190.542 1843.52 209.368C1854.36 228.206 1860.66 250.29 1862.17 275.652C1862.49 283.764 1862.66 291.881 1862.67 300C1862.67 309.542 1862.42 317.826 1862.17 324.355C1860.66 349.452 1854.61 371.548 1844.02 390.374C1833.44 409.206 1818.07 424.019 1797.67 434.31C1777.76 444.852 1752.82 449.877 1723.09 449.877Z" fill="#93E3CC"/>
<path d="M2124.7 274.897H2247.9V273.135C2247.9 258.581 2245.38 246.026 2240.59 235.484C2235.8 224.684 2228.75 216.148 2219.43 209.871C2210.11 203.6 2199.02 200.335 2185.92 200.335C2172.81 200.335 2161.73 203.6 2152.41 209.877C2143.09 216.148 2136.03 224.684 2131.5 235.484C2126.96 246.277 2124.44 258.826 2124.44 273.135V274.897H2124.7ZM2185.92 449.871C2144.6 449.871 2111.84 438.065 2087.91 414.219C2063.72 390.619 2050.62 356.735 2048.86 313.052C2048.53 308.37 2048.37 303.68 2048.36 298.987C2048.36 293.213 2048.61 288.697 2048.86 285.439C2050.37 257.568 2056.67 233.465 2068.01 213.129C2079.35 192.8 2094.97 177.232 2115.12 166.187C2135.28 155.142 2158.71 149.865 2185.92 149.865C2216.15 149.865 2241.35 156.142 2261.75 168.445C2282.16 180.748 2297.53 198.071 2308.11 220.161C2318.44 242.252 2323.74 267.606 2323.74 296.484V308.032C2323.74 311.794 2322.47 314.806 2319.96 317.568C2317.43 320.077 2313.91 321.335 2309.88 321.335H2124.7V325.852C2124.95 338.903 2127.46 350.703 2132.25 361.748C2136.79 372.8 2143.85 381.587 2152.92 388.11C2161.98 394.884 2172.82 398.155 2185.41 398.155C2195.74 398.155 2204.56 396.645 2211.62 393.381C2218.67 390.116 2224.47 386.606 2229 382.587C2233.54 378.568 2236.56 375.31 2238.58 372.548C2241.85 368.032 2244.62 365.516 2246.64 364.516C2248.66 363.51 2251.68 363.006 2255.96 363.006H2303.83C2307.61 363.006 2310.63 364.013 2313.15 366.271C2315.67 368.529 2316.68 371.29 2316.18 374.555C2315.67 380.581 2312.65 387.606 2306.85 396.142C2301.06 404.677 2292.74 412.961 2282.16 421.252C2271.33 429.284 2257.97 436.058 2241.85 441.581C2225.22 447.355 2206.83 449.871 2185.92 449.871Z" fill="#93E3CC"/>
<path d="M2522.02 396.652L2487.75 398.658C2465.58 399.916 2446.69 382.342 2446.69 360C2446.69 340.671 2461.05 324.355 2480.2 321.594L2549.48 312.303V367.529C2549.48 382.845 2537.39 395.652 2522.02 396.652ZM2617 215.652C2612.65 202.877 2605.41 191.279 2595.84 181.755C2586.27 172.219 2573.16 164.439 2557.04 158.658C2540.92 152.89 2521.01 150.129 2497.58 150.129C2475.91 150.129 2457.52 152.89 2442.4 158.413C2427.03 163.935 2414.69 170.71 2405.12 178.748C2395.54 186.781 2388.48 195.065 2383.95 203.348C2379.42 211.884 2377.15 219.161 2376.64 224.935C2376.64 228.703 2377.65 231.716 2379.67 233.723C2381.68 235.981 2384.71 236.987 2388.99 236.987H2433.08C2438.62 236.987 2442.91 234.477 2445.93 229.71C2449.93 220.926 2456.41 213.507 2464.58 208.368C2472.89 203.097 2483.72 200.335 2497.08 200.335C2515.97 200.335 2529.32 204.606 2537.14 213.135C2544.95 221.671 2548.72 233.723 2548.72 249.29V267.865L2451.22 275.4C2405.62 278.91 2370.35 316.819 2370.35 362.51C2370.35 410.71 2409.65 449.877 2458.02 449.877H2547.21C2589.29 449.877 2623.3 415.987 2623.3 374.058V256.568C2623.55 242.258 2621.54 228.452 2617 215.652Z" fill="#93E3CC"/>
<path d="M1931.45 49.9614H1980.83C1982.38 49.9563 1983.92 50.2575 1985.36 50.8477C1986.79 51.438 1988.1 52.3057 1989.2 53.4011C1990.3 54.4966 1991.17 55.7983 1991.77 57.2318C1992.37 58.6653 1992.67 60.2023 1992.68 61.7549V432.807C1992.67 434.359 1992.37 435.896 1991.77 437.33C1991.17 438.763 1990.3 440.065 1989.2 441.16C1988.1 442.256 1986.79 443.124 1985.36 443.714C1983.92 444.304 1982.38 444.605 1980.83 444.6H1931.45C1929.89 444.604 1928.36 444.303 1926.92 443.712C1925.49 443.121 1924.18 442.253 1923.08 441.158C1921.98 440.063 1921.11 438.761 1920.51 437.328C1919.92 435.895 1919.61 434.359 1919.61 432.807V61.7549C1919.61 60.2028 1919.92 58.6663 1920.51 57.2333C1921.11 55.8002 1921.98 54.4988 1923.08 53.4034C1924.18 52.308 1925.49 51.4402 1926.92 50.8496C1928.36 50.2589 1929.89 49.9571 1931.45 49.9614Z" fill="#93E3CC"/>
<path d="M1465.09 49.9614H1514.47C1516.02 49.9563 1517.56 50.2575 1519 50.8477C1520.43 51.438 1521.74 52.3057 1522.84 53.4011C1523.94 54.4966 1524.81 55.7983 1525.41 57.2318C1526.01 58.6653 1526.32 60.2023 1526.32 61.7549V432.807C1526.32 434.359 1526.01 435.896 1525.41 437.33C1524.81 438.763 1523.94 440.065 1522.84 441.16C1521.74 442.256 1520.43 443.124 1519 443.714C1517.56 444.304 1516.02 444.605 1514.47 444.6H1465.09C1463.54 444.605 1462 444.304 1460.57 443.714C1459.13 443.124 1457.83 442.256 1456.72 441.16C1455.62 440.065 1454.75 438.763 1454.15 437.33C1453.56 435.896 1453.25 434.359 1453.25 432.807V61.7549C1453.25 60.2023 1453.56 58.6653 1454.15 57.2318C1454.75 55.7983 1455.62 54.4966 1456.72 53.4011C1457.83 52.3057 1459.13 51.438 1460.57 50.8477C1462 50.2575 1463.54 49.9563 1465.09 49.9614Z" fill="#93E3CC"/>
<path d="M2697.13 445.858C2693.77 445.881 2690.53 444.623 2688.06 442.342C2686.68 440.956 2685.6 439.31 2684.86 437.5C2684.13 435.691 2683.76 433.753 2683.78 431.8V225.936C2683.78 184.013 2717.78 150.116 2759.86 150.116C2786.07 150.116 2806.72 150.116 2844.52 149.619C2852.58 149.619 2859.39 156.142 2859.39 164.181V189.277C2859.38 193.146 2857.83 196.853 2855.09 199.585C2852.35 202.316 2848.64 203.849 2844.77 203.845H2788.33C2772.21 203.845 2759.11 216.897 2759.11 232.968V432.548C2759.11 436.31 2757.84 439.323 2755.33 441.839C2752.81 444.342 2749.53 445.6 2745.5 445.6H2697.13V445.858Z" fill="#93E3CC"/>
<path d="M2879.03 262.845V431.297C2879.04 435.164 2880.59 438.87 2883.33 441.6C2886.07 444.33 2889.78 445.861 2893.64 445.858H2940.26C2944.13 445.861 2947.84 444.33 2950.58 441.6C2953.32 438.87 2954.86 435.164 2954.87 431.297V261.839C2954.87 227.948 2982.33 200.587 3016.35 200.587C3050.36 200.587 3077.82 227.948 3077.82 261.839V431.297C3077.83 435.165 3079.37 438.872 3082.11 441.602C3084.86 444.332 3088.57 445.863 3092.44 445.858H3139.04C3142.91 445.863 3146.63 444.332 3149.37 441.602C3152.11 438.872 3153.65 435.165 3153.66 431.297V262.845C3153.66 200.587 3103.02 149.877 3040.28 149.877H2992.16C2929.93 149.877 2879.03 200.587 2879.03 262.845Z" fill="#93E3CC"/>
<path d="M403.879 134.561C468.379 134.561 526.33 162.677 565.629 207.613C578.984 222.677 603.928 212.387 601.915 192.303C600.592 178.881 598.061 165.606 594.353 152.639C574.449 81.8388 517.51 26.613 446.216 8.03232C302.854 -29.6257 173.854 77.3226 173.854 214.142C173.854 222.929 174.357 231.716 175.37 240.252C177.886 260.084 204.598 265.103 214.172 247.536C232.637 213.322 260.027 184.751 293.431 164.859C326.835 144.966 364.999 134.496 403.879 134.561Z" fill="#93E3CC"/>
<path d="M135.059 197.581C134.987 167.027 141.498 136.816 154.149 109.004C166.8 81.1917 185.294 56.431 208.372 36.4065C223.496 23.1033 213.16 -1.74189 193.004 0.258107C179.648 1.51617 166.293 4.02585 152.944 7.54198C81.8947 27.6258 26.4661 84.1097 7.81998 155.155C-29.7174 298.252 77.6106 426.787 214.927 426.787C223.741 426.787 232.561 426.284 241.122 425.277C261.033 422.768 266.072 396.161 248.432 386.619C180.913 350.465 135.052 279.419 135.052 197.587L135.059 197.581Z" fill="#93E3CC"/>
<path d="M198.294 465.439C133.794 465.439 75.8427 437.323 36.5439 392.387C23.1883 377.323 -1.75486 387.613 0.258146 407.697C1.5809 421.119 4.11171 434.394 7.81982 447.361C27.7241 518.161 84.6625 573.387 155.963 591.968C299.577 629.374 428.577 522.426 428.577 385.606C428.577 376.819 428.067 368.032 427.061 359.497C424.544 339.665 397.833 334.645 388.259 352.219C351.728 419.748 280.427 465.439 198.294 465.439Z" fill="#93E3CC"/>
<path d="M467.121 402.426C467.192 432.98 460.68 463.191 448.028 491.003C435.376 518.816 416.88 543.576 393.801 563.6C378.684 576.903 389.013 601.755 409.176 599.748C422.273 598.497 435.629 595.981 448.984 592.219C520.027 572.387 575.455 515.652 594.095 444.606C631.645 301.503 524.311 172.968 387 172.968C378.245 172.961 369.496 173.463 360.799 174.471C340.895 176.987 335.856 203.594 353.489 213.129C421.267 249.548 467.121 320.587 467.121 402.426Z" fill="#93E3CC"/>
</svg>
